Coordinates
version=1
nRows=16
nColumns=40
inDegrees=yes

Units are S.I. units (second, meters, Newtons, ...)
Angles are in degrees.

endheader
time	pelvis_tilt	pelvis_list	pelvis_rotation	pelvis_tx	pelvis_ty	pelvis_tz	hip_flexion_r	hip_adduction_r	hip_rotation_r	knee_angle_r	knee_angle_r_beta	ankle_angle_r	subtalar_angle_r	mtp_angle_r	hip_flexion_l	hip_adduction_l	hip_rotation_l	knee_angle_l	knee_angle_l_beta	ankle_angle_l	subtalar_angle_l	mtp_angle_l	lumbar_extension	lumbar_bending	lumbar_rotation	arm_flex_r	arm_add_r	arm_rot_r	elbow_flex_r	pro_sup_r	wrist_flex_r	wrist_dev_r	arm_flex_l	arm_add_l	arm_rot_l	elbow_flex_l	pro_sup_l	wrist_flex_l	wrist_dev_l
     23.38000000	     -7.02788874	     -3.29623292	     -3.43323504	      0.85990646	      0.92833566	      0.45845553	     23.93137217	     -6.32753833	     -9.24690309	     60.33739428	     60.33739428	      7.21284992	    -18.80980933	      9.29248972	     19.03888540	     -4.11114822	     -7.32148899	     22.08438025	     22.08438025	     12.24434266	    -10.49610101	      0.13974975	     -9.12871953	      3.73778766	      1.18877794	      5.87987868	    -11.86016555	     -0.64172838	     38.71745458	     45.93537316	      0.00000000	      0.00000000	     12.09550723	    -11.62406033	    -10.91473573	     49.04008549	     45.74987693	      0.00000000	      0.00000000
     23.39335714	     -7.15424987	     -3.39642743	     -3.66864098	      0.85846757	      0.92859678	      0.45849919	     25.21667091	     -6.00083335	     -8.90554478	     60.26457042	     60.26457042	      7.05281586	    -18.69328903	      9.18851780	     18.65777521	     -4.23945080	     -7.45343222	     21.93492788	     21.93492788	     12.49365612	    -10.49735611	      0.12905559	     -9.25399292	      3.99673500	      1.44796659	      4.25288053	    -12.45327534	     -0.80302007	     37.21615594	     45.99034988	      0.00000000	      0.00000000	     13.16154235	    -11.73750268	    -11.03923203	     50.41628685	     45.79985415	      0.00000000	      0.00000000
     23.40671429	     -7.19017705	     -3.53302717	     -3.90663345	      0.85704045	      0.92892825	      0.45868083	     26.31904209	     -5.63384350	     -8.63822549	     60.02099096	     60.02099096	      6.83106480	    -18.57950785	      8.98038646	     18.18870670	     -4.43483156	     -7.65680067	     21.82002331	     21.82002331	     12.76603419	    -10.39753869	      0.11438969	     -9.53158057	      4.19927385	      1.66430163	      2.87479672	    -12.94094562	     -1.32736266	     35.21453061	     46.08870401	      0.00000000	      0.00000000	     13.99085357	    -11.91306775	    -11.06744679	     52.46627342	     45.85409031	      0.00000000	      0.00000000
     23.42007143	     -7.28901533	     -3.67334383	     -4.08201203	      0.85559555	      0.92914998	      0.45885061	     27.41205080	     -5.26795495	     -8.43514218	     59.57977120	     59.57977120	      6.59799628	    -18.38752061	      8.92699851	     17.78124497	     -4.59553842	     -7.71340035	     21.65324715	     21.65324715	     13.00563197	    -10.34353253	      0.09668829	     -9.66676151	      4.49899677	      1.31035037	      1.54080691	    -13.36561259	     -1.58242477	     34.14842365	     46.13685834	      0.00000000	      0.00000000	     14.76773086	    -12.51213572	    -11.22169515	     53.46899156	     45.89334459	      0.00000000	      0.00000000
     23.43342857	     -7.34357101	     -3.82111364	     -4.31478457	      0.85411638	      0.92928666	      0.45925807	     28.36628062	     -4.85663117	     -8.21403066	     58.86408409	     58.86408409	      6.07144948	    -18.28556899	      7.73355639	     17.39898811	     -4.84757065	     -8.03300742	     21.65370556	     21.65370556	     13.46177259	    -10.00102824	      0.28629563	     -9.99002905	      4.68946845	      0.76383372	      1.90535981	    -12.98506476	     -4.84215839	     29.14368647	     46.54888407	      0.00000000	      0.00000000	     13.91673300	    -13.33961751	    -10.93683664	     58.68956506	     46.01942375	      0.00000000	      0.00000000
     23.44678571	     -7.44952906	     -3.87960561	     -4.50967063	      0.85257093	      0.92932342	      0.45970097	     29.31227186	     -4.51667920	     -7.97870108	     57.89709780	     57.89709780	      6.03195470	    -17.88905231	      7.74849940	     17.07759956	     -4.94694202	     -8.13545440	     21.59449305	     21.59449305	     13.65754660	    -10.07528853	      0.26073034	    -10.11240770	      4.85122346	      0.30831199	      0.76623836	    -13.52733925	     -5.00791363	     28.57153850	     46.57528850	      0.00000000	      0.00000000	     14.74577519	    -13.94729105	    -11.18002997	     59.19421141	     46.05587306	      0.00000000	      0.00000000
     23.46014286	     -7.57477588	     -4.04293182	     -4.78297747	      0.85098901	      0.92934008	      0.46040490	     30.14480463	     -4.04543677	     -7.84325620	     56.50758850	     56.50758850	      5.55632364	    -17.66732915	      6.97051468	     16.78046307	     -5.21180748	     -8.36393650	     21.58764130	     21.58764130	     14.02920969	     -9.95602048	      0.38322244	    -10.35297906	      5.04400175	      0.99073325	     -0.51873236	    -13.91905379	     -6.57742922	     26.51704603	     46.76627051	      0.00000000	      0.00000000	     15.36592438	    -13.74155318	    -11.43350702	     62.14722802	     46.16751878	      0.00000000	      0.00000000
     23.47350000	     -7.70033825	     -4.02539367	     -5.02734051	      0.84930095	      0.92912198	      0.46126063	     31.00444910	     -3.69065471	     -7.49389702	     54.99798698	     54.99798698	      5.69381201	    -17.08558680	      6.96780368	     16.53172849	     -5.26508780	     -8.45604754	     21.60387250	     21.60387250	     14.25141906	    -10.05284251	      0.32085661	    -10.45089496	      5.09854120	      0.43062509	     -1.40526715	    -14.36770580	     -6.72770666	     26.12742352	     46.78707224	      0.00000000	      0.00000000	     16.05373488	    -14.29081937	    -11.60567321	     62.56557567	     46.19402162	      0.00000000	      0.00000000
     23.48685714	     -7.92090361	     -4.09396478	     -5.26867160	      0.84753378	      0.92889792	      0.46237379	     31.77658380	     -3.27230588	     -7.38361337	     52.99833791	     52.99833791	      5.78670828	    -16.43210529	      6.98667746	     16.35929765	     -5.42983929	     -8.58475217	     21.56174431	     21.56174431	     14.44174271	    -10.16958483	      0.29859178	    -10.53535744	      5.20544412	      0.20528284	     -2.41433715	    -14.87225473	     -6.90664064	     25.63983442	     46.81361839	      0.00000000	      0.00000000	     16.71440523	    -14.89171171	    -11.83191203	     63.22343408	     46.22829726	      0.00000000	      0.00000000
     23.50021429	     -8.05177684	     -4.63253749	     -5.52260397	      0.84596992	      0.92905486	      0.46385423	     32.06601939	     -2.40373839	     -7.68393492	     50.29140844	     50.29140844	      5.62041937	    -15.62750418	      6.43007156	     16.00816394	     -6.10211801	     -8.50760725	     21.47238354	     21.47238354	     14.70188243	    -10.25223790	      0.41981809	    -10.86611862	      5.86263964	      0.88414738	     -3.79369296	    -15.42288307	     -7.55097102	     24.61225364	     46.89880245	      0.00000000	      0.00000000	     17.19032540	    -14.67553430	    -11.92606707	     65.72618417	     46.28835760	      0.00000000	      0.00000000
     23.51357143	     -8.25844039	     -4.64937437	     -5.83157527	      0.84431576	      0.92875385	      0.46539349	     32.40598301	     -2.01884159	     -7.70778644	     47.23234075	     47.23234075	      4.44408711	    -15.15408295	      2.37171841	     15.82675537	     -6.28027787	     -8.82524576	     21.52599348	     21.52599348	     15.16553458	    -10.10258599	      0.88104101	    -11.08583567	      5.84878214	      0.19883301	     -3.92596277	    -15.37978020	    -11.01901744	     23.60031053	     47.22692130	      0.00000000	      0.00000000	     16.00111170	    -15.63258082	    -12.20934691	     70.49079581	     46.45900454	      0.00000000	      0.00000000
     23.52692857	     -8.53361973	     -4.73833593	     -6.12758028	      0.84273341	      0.92847706	      0.46718012	     32.73383473	     -1.50208492	     -7.75980512	     44.04309815	     44.04309815	      4.58024751	    -13.92733481	      2.27032981	     15.63549043	     -6.50244997	     -8.91113317	     21.40421479	     21.40421479	     15.36307950	    -10.22597492	      0.86780467	    -11.06403596	      5.98588991	      0.13144051	     -4.72308727	    -15.75750222	    -11.35775064	     23.20988901	     47.26465883	      0.00000000	      0.00000000	     16.52883971	    -15.91025325	    -12.44406330	     70.95993194	     46.49604466	      0.00000000	      0.00000000
     23.54028571	     -8.76189672	     -4.86771819	     -6.42349754	      0.84128487	      0.92826996	      0.46909882	     32.79406069	     -0.97435745	     -8.00729564	     40.48470438	     40.48470438	      4.66785094	    -12.39230732	      2.03349258	     15.34112389	     -6.76261776	     -9.02220037	     21.22316384	     21.22316384	     15.57246304	    -10.35223562	      0.87067525	    -11.10731934	      6.15052170	      0.19326917	     -5.51031585	    -16.08846951	    -11.76456460	     22.90020772	     47.30452260	      0.00000000	      0.00000000	     16.93742287	    -16.05102323	    -12.60370604	     71.75661491	     46.53408832	      0.00000000	      0.00000000
     23.55364286	     -8.95672074	     -4.86306412	     -6.71346923	      0.84005178	      0.92794228	      0.47120330	     32.49302953	     -0.56424409	     -8.36472704	     36.29958712	     36.29958712	      3.24607083	    -11.22017437	     -2.37181361	     14.98094755	     -6.88620139	     -9.20880414	     21.00264401	     21.00264401	     15.79283888	    -10.44298942	      0.95354565	    -11.23089527	      6.16371749	      0.04016214	     -6.04125070	    -15.93345189	    -15.79367426	     23.04041849	     47.60278777	      0.00000000	      0.00000000	     16.62069596	    -16.39625447	    -12.90879453	     73.97435985	     46.74028923	      0.00000000	      0.00000000
     23.56700000	     -9.14192759	     -4.87403057	     -6.99583294	      0.83898347	      0.92759080	      0.47345354	     32.17838097	     -0.12946441	     -8.79667145	     32.36862822	     32.36862822	      3.34942561	     -9.05422430	     -1.98384862	     14.55176681	     -7.01806196	     -9.36983670	     20.70184910	     20.70184910	     15.99208397	    -10.50979155	      0.88843225	    -11.24999256	      6.20835940	      0.18556572	     -6.66502648	    -16.12074925	    -16.24123865	     22.74307272	     47.63816152	      0.00000000	      0.00000000	     17.05072801	    -16.45897191	    -12.89435909	     74.34690835	     46.77590915	      0.00000000	      0.00000000
     23.58035714	     -9.38966936	     -4.86860084	     -7.23752503	      0.83813749	      0.92696457	      0.47590686	     31.80539729	      0.37696645	     -9.14684030	     28.43160165	     28.43160165	      3.27258147	     -7.14098176	     -1.31884293	     14.17207414	     -7.13868356	     -9.48377447	     20.38500040	     20.38500040	     16.21863311	    -10.61223336	      0.82915331	    -11.12577362	      6.25391795	      0.13218231	     -7.17829236	    -16.24070912	    -16.46227353	     22.66367123	     47.65075847	      0.00000000	      0.00000000	     17.18379433	    -16.60231310	    -12.86006168	     74.69269666	     46.79264529	      0.00000000	      0.00000000
